
<global>
ampeg_attack=0.01
ampeg_release=0.3
</global>

<group>
group_label=PP_RR1
seq_length=2
seq_position=1

<region>
end=1443546
hikey=D#3
hivel=63
lokey=C3
lovel=0
offset=18632
pitch_keycenter=D3
sample=Fender_Stratocaster_Harmonic_RR2_PP_D4.opus
volume=+8.75
</region>

<region>
end=1452836
hikey=G#3
hivel=63
lokey=E3
lovel=0
offset=19973
pitch_keycenter=E3
sample=Fender_Stratocaster_Harmonic_RR1_PP_E4.opus
volume=+8.17
</region>

<region>
end=1332105
hikey=A#3
hivel=63
lokey=A3
lovel=0
offset=20256
pitch_keycenter=A3
sample=Fender_Stratocaster_Harmonic_RR1_PP_A4.opus
volume=+13.00
</region>

<region>
end=949071
hikey=C#4
hivel=63
lokey=B3
lovel=0
offset=20609
pitch_keycenter=B3
sample=Fender_Stratocaster_Harmonic_RR1_PP_B4.opus
volume=+6.29
</region>

<region>
end=1263830
hikey=D#4
hivel=63
lokey=D4
lovel=0
offset=19022
pitch_keycenter=D4
sample=Fender_Stratocaster_Harmonic_RR1_PP_D5.opus
volume=+12.58
</region>

<region>
end=1364869
hikey=F#4
hivel=63
lokey=E4
lovel=0
offset=18965
pitch_keycenter=E4
sample=Fender_Stratocaster_Harmonic_RR1_PP_E5.opus
volume=+13.69
</region>

<region>
end=1248552
hikey=G#4
hivel=63
lokey=G4
lovel=0
offset=17473
pitch_keycenter=G4
sample=Fender_Stratocaster_Harmonic_RR1_PP_G5.opus
volume=+9.29
</region>

<region>
end=968557
hikey=A#4
hivel=63
lokey=A4
lovel=0
offset=17766
pitch_keycenter=A4
sample=Fender_Stratocaster_Harmonic_RR1_PP_A5.opus
volume=+12.76
</region>

<region>
end=748555
hikey=C#5
hivel=63
lokey=B4
lovel=0
offset=18015
pitch_keycenter=B4
sample=Fender_Stratocaster_Harmonic_RR1_PP_B5.opus
volume=+10.92
</region>

<region>
end=973359
hikey=D#5
hivel=63
lokey=D5
lovel=0
offset=18260
pitch_keycenter=D5
sample=Fender_Stratocaster_Harmonic_RR1_PP_D6.opus
volume=+9.78
</region>

<region>
end=712333
hikey=F5
hivel=63
lokey=E5
lovel=0
offset=18583
pitch_keycenter=E5
sample=Fender_Stratocaster_Harmonic_RR1_PP_E6.opus
volume=+8.64
</region>

<region>
end=868673
hivel=63
key=F#5
lovel=0
offset=17888
sample=Fender_Stratocaster_Harmonic_RR1_PP_F#6.opus
volume=+11.74
</region>

<region>
end=877020
hikey=A#5
hivel=63
lokey=G5
lovel=0
offset=18210
pitch_keycenter=G5
sample=Fender_Stratocaster_Harmonic_RR1_PP_G6.opus
volume=+9.91
</region>

<region>
end=605881
hikey=D#6
hivel=63
lokey=B5
lovel=0
offset=18810
pitch_keycenter=B5
sample=Fender_Stratocaster_Harmonic_RR1_PP_B6.opus
volume=+11.30
</region>

<region>
end=621467
hikey=G#6
hivel=63
lokey=E6
lovel=0
offset=18429
pitch_keycenter=E6
sample=Fender_Stratocaster_Harmonic_RR1_PP_E7.opus
volume=+8.36
</region>
</group>

<group>
group_label=PP_RR2
seq_length=2
seq_position=2

<region>
end=1443546
hikey=D#3
hivel=63
lokey=C3
lovel=0
offset=18632
pitch_keycenter=D3
sample=Fender_Stratocaster_Harmonic_RR2_PP_D4.opus
volume=+8.75
</region>

<region>
end=1481354
hikey=G#3
hivel=63
lokey=E3
lovel=0
offset=18320
pitch_keycenter=E3
sample=Fender_Stratocaster_Harmonic_RR2_PP_E4.opus
volume=+9.05
</region>

<region>
end=1435596
hikey=A#3
hivel=63
lokey=A3
lovel=0
offset=19562
pitch_keycenter=A3
sample=Fender_Stratocaster_Harmonic_RR2_PP_A4.opus
volume=+16.60
</region>

<region>
end=845747
hikey=C#4
hivel=63
lokey=B3
lovel=0
offset=18173
pitch_keycenter=B3
sample=Fender_Stratocaster_Harmonic_RR2_PP_B4.opus
volume=+3.80
</region>

<region>
hikey=D#4
hivel=63
lokey=D4
lovel=0
offset=20162
pitch_keycenter=D4
sample=Fender_Stratocaster_Harmonic_RR2_PP_D5.opus
volume=+13.80
</region>

<region>
end=1358662
hikey=F#4
hivel=63
lokey=E4
lovel=0
offset=18346
pitch_keycenter=E4
sample=Fender_Stratocaster_Harmonic_RR2_PP_E5.opus
volume=+12.20
</region>

<region>
end=1255622
hikey=G#4
hivel=63
lokey=G4
lovel=0
offset=17884
pitch_keycenter=G4
sample=Fender_Stratocaster_Harmonic_RR2_PP_G5.opus
volume=+9.59
</region>

<region>
end=1098372
hikey=A#4
hivel=63
lokey=A4
lovel=0
offset=17968
pitch_keycenter=A4
sample=Fender_Stratocaster_Harmonic_RR2_PP_A5.opus
volume=+13.22
</region>

<region>
end=809354
hikey=C#5
hivel=63
lokey=B4
lovel=0
offset=18822
pitch_keycenter=B4
sample=Fender_Stratocaster_Harmonic_RR2_PP_B5.opus
volume=+12.35
</region>

<region>
end=1173093
hikey=D#5
hivel=63
lokey=D5
lovel=0
offset=18453
pitch_keycenter=D5
sample=Fender_Stratocaster_Harmonic_RR2_PP_D6.opus
volume=+10.03
</region>

<region>
end=512094
hikey=F5
hivel=63
lokey=E5
lovel=0
offset=18407
pitch_keycenter=E5
sample=Fender_Stratocaster_Harmonic_RR2_PP_E6.opus
volume=+11.49
</region>

<region>
end=792017
hivel=63
key=F#5
lovel=0
offset=17339
sample=Fender_Stratocaster_Harmonic_RR2_PP_F#6.opus
volume=+10.44
</region>

<region>
end=760500
hikey=A#5
hivel=63
lokey=G5
lovel=0
offset=17585
pitch_keycenter=G5
sample=Fender_Stratocaster_Harmonic_RR2_PP_G6.opus
volume=+8.37
</region>

<region>
end=579828
hikey=D#6
hivel=63
lokey=B5
lovel=0
offset=17956
pitch_keycenter=B5
sample=Fender_Stratocaster_Harmonic_RR2_PP_B6.opus
volume=+9.61
</region>

<region>
end=593764
hikey=G#6
hivel=63
lokey=E6
lovel=0
offset=18852
pitch_keycenter=E6
sample=Fender_Stratocaster_Harmonic_RR2_PP_E7.opus
volume=+9.97
</region>
</group>

<group>
group_label=FF_RR1
seq_length=2
seq_position=1

<region>
end=1411115
hikey=D#3
hivel=127
lokey=C3
lovel=64
offset=18569
pitch_keycenter=D3
sample=Fender_Stratocaster_Harmonic_RR1_FF_D4.opus
volume=+3.92
</region>

<region>
end=1403879
hikey=G#3
hivel=127
lokey=E3
lovel=64
offset=17811
pitch_keycenter=E3
sample=Fender_Stratocaster_Harmonic_RR1_FF_E4.opus
volume=+4.67
</region>

<region>
end=1432843
hikey=A#3
hivel=127
lokey=A3
lovel=64
offset=19123
pitch_keycenter=A3
sample=Fender_Stratocaster_Harmonic_RR1_FF_A4.opus
volume=+5.76
</region>

<region>
end=860677
hikey=C#4
hivel=127
lokey=B3
lovel=64
offset=19088
pitch_keycenter=B3
sample=Fender_Stratocaster_Harmonic_RR1_FF_B4.opus
volume=+1.92
</region>

<region>
end=1437867
hikey=D#4
hivel=127
lokey=D4
lovel=64
offset=19981
pitch_keycenter=D4
sample=Fender_Stratocaster_Harmonic_RR1_FF_D5.opus
volume=+11.53
</region>

<region>
end=1131672
hikey=F#4
hivel=127
lokey=E4
lovel=64
offset=20357
pitch_keycenter=E4
sample=Fender_Stratocaster_Harmonic_RR1_FF_E5.opus
volume=+8.24
</region>

<region>
end=1328601
hikey=A4
hivel=127
lokey=G4
lovel=64
offset=18700
pitch_keycenter=G4
sample=Fender_Stratocaster_Harmonic_RR1_FF_G5.opus
volume=+7.30
</region>

<region>
end=976032
hikey=C#5
hivel=127
lokey=A#4
lovel=64
offset=18406
pitch_keycenter=B4
sample=Fender_Stratocaster_Harmonic_RR1_FF_B5.opus
volume=+15.02
</region>

<region>
end=1442899
hikey=D#5
hivel=127
lokey=D5
lovel=64
offset=18737
pitch_keycenter=D5
sample=Fender_Stratocaster_Harmonic_RR1_FF_D6.opus
volume=+7.74
</region>

<region>
end=519837
hikey=F5
hivel=127
lokey=E5
lovel=64
offset=19508
pitch_keycenter=E5
sample=Fender_Stratocaster_Harmonic_RR1_FF_E6.opus
volume=+9.71
</region>

<region>
end=808798
hivel=127
key=F#5
lovel=64
offset=18465
sample=Fender_Stratocaster_Harmonic_RR1_FF_F#6.opus
volume=+13.96
</region>

<region>
end=941714
hikey=A#5
hivel=127
lokey=G5
lovel=64
offset=18588
pitch_keycenter=G5
sample=Fender_Stratocaster_Harmonic_RR1_FF_G6.opus
volume=+7.57
</region>

<region>
end=411708
hikey=D#6
hivel=127
lokey=B5
lovel=64
offset=18706
pitch_keycenter=B5
sample=Fender_Stratocaster_Harmonic_RR1_FF_B6.opus
volume=+15.14
</region>

<region>
end=540467
hikey=G#6
hivel=127
lokey=E6
lovel=64
offset=18275
pitch_keycenter=E6
sample=Fender_Stratocaster_Harmonic_RR1_FF_E7.opus
volume=+8.84
</region>
</group>

<group>
group_label=FF_RR2
seq_length=2
seq_position=2

<region>
end=1455920
hikey=D#3
hivel=127
lokey=C3
lovel=64
offset=19434
pitch_keycenter=D3
sample=Fender_Stratocaster_Harmonic_RR2_FF_D4.opus
volume=+7.27
</region>

<region>
end=1396261
hikey=G#3
hivel=127
lokey=E3
lovel=64
offset=18129
pitch_keycenter=E3
sample=Fender_Stratocaster_Harmonic_RR2_FF_E4.opus
volume=+3.21
</region>

<region>
end=1434538
hikey=A#3
hivel=127
lokey=A3
lovel=64
offset=19747
pitch_keycenter=A3
sample=Fender_Stratocaster_Harmonic_RR2_FF_A4.opus
volume=+7.46
</region>

<region>
end=794245
hikey=C#4
hivel=127
lokey=B3
lovel=64
offset=18487
pitch_keycenter=B3
sample=Fender_Stratocaster_Harmonic_RR2_FF_B4.opus
volume=+3.60
</region>

<region>
hikey=D#4
hivel=127
lokey=D4
lovel=64
offset=16719
pitch_keycenter=D4
sample=Fender_Stratocaster_Harmonic_RR2_FF_D5.opus
volume=+10.48
</region>

<region>
end=1453999
hikey=F#4
hivel=127
lokey=E4
lovel=64
offset=18440
pitch_keycenter=E4
sample=Fender_Stratocaster_Harmonic_RR2_FF_E5.opus
volume=+8.41
</region>

<region>
end=1139526
hikey=G#4
hivel=127
lokey=G4
lovel=64
offset=18512
pitch_keycenter=G4
sample=Fender_Stratocaster_Harmonic_RR2_FF_G5.opus
volume=+7.70
</region>

<region>
end=1068550
hikey=A#4
hivel=127
lokey=A4
lovel=64
offset=19834
pitch_keycenter=A4
sample=Fender_Stratocaster_Harmonic_RR2_FF_A5.opus
volume=+9.27
</region>

<region>
end=984452
hikey=C#5
hivel=127
lokey=B4
lovel=64
offset=18830
pitch_keycenter=B4
sample=Fender_Stratocaster_Harmonic_RR2_FF_B5.opus
volume=+14.66
</region>

<region>
end=1209110
hikey=D#5
hivel=127
lokey=D5
lovel=64
offset=17482
pitch_keycenter=D5
sample=Fender_Stratocaster_Harmonic_RR2_FF_D6.opus
volume=+8.14
</region>

<region>
end=695460
hikey=F5
hivel=127
lokey=E5
lovel=64
offset=17438
pitch_keycenter=E5
sample=Fender_Stratocaster_Harmonic_RR2_FF_E6.opus
volume=+9.10
</region>

<region>
end=767416
hivel=127
key=F#5
lovel=64
offset=16801
sample=Fender_Stratocaster_Harmonic_RR2_FF_F#6.opus
volume=+13.57
</region>

<region>
end=964519
hikey=A#5
hivel=127
lokey=G5
lovel=64
offset=19497
pitch_keycenter=G5
sample=Fender_Stratocaster_Harmonic_RR2_FF_G6.opus
volume=+7.49
</region>

<region>
end=614984
hikey=D#6
hivel=127
lokey=B5
lovel=64
offset=18055
pitch_keycenter=B5
sample=Fender_Stratocaster_Harmonic_RR2_FF_B6.opus
volume=+12.43
</region>

<region>
end=539446
hikey=G#6
hivel=127
lokey=E6
lovel=64
offset=19850
pitch_keycenter=E6
sample=Fender_Stratocaster_Harmonic_RR2_FF_E7.opus
volume=+8.84
</region>
</group>